<svg width="76" height="76" viewBox="0 0 76 76" fill="none" xmlns="http://www.w3.org/2000/svg">
<rect x="0.5" y="0.5" width="75" height="75" stroke="#3F53D8"/>
<g clip-path="url(#clip0_0_369)">
<path d="M38 67C54.0163 67 67 54.0163 67 38C67 21.9837 54.0163 9 38 9C21.9837 9 9 21.9837 9 38C9 54.0163 21.9837 67 38 67Z" fill="url(#paint0_linear_0_369)"/>
<path d="M47.4533 36.7625L34.4061 28.7889C34.1864 28.6545 33.9348 28.5811 33.6773 28.5762C33.4197 28.5713 33.1655 28.6351 32.9408 28.7611C32.7161 28.8871 32.5291 29.0706 32.3989 29.293C32.2686 29.5152 32.2 29.7682 32.2 30.0258V45.9743C32.2002 46.2319 32.269 46.4846 32.3992 46.7068C32.5295 46.9289 32.7165 47.1124 32.9412 47.2384C33.1658 47.3643 33.4198 47.4281 33.6774 47.4234C33.9348 47.4186 34.1863 47.3454 34.4061 47.2112L47.4533 39.2376C47.6653 39.108 47.8404 38.9262 47.9619 38.7095C48.0834 38.4927 48.1472 38.2485 48.1472 38C48.1472 37.7516 48.0834 37.5073 47.9619 37.2906C47.8404 37.074 47.6653 36.892 47.4533 36.7625Z" fill="white"/>
</g>
<defs>
<linearGradient id="paint0_linear_0_369" x1="9" y1="9" x2="67" y2="78.9625" gradientUnits="userSpaceOnUse">
<stop stop-color="#3F53D8"/>
<stop offset="1" stop-color="#8090FE"/>
</linearGradient>
<clipPath id="clip0_0_369">
<rect width="58" height="58" fill="white" transform="translate(9 9)"/>
</clipPath>
</defs>
</svg>
